<?xml version="1.0" encoding="UTF-8" standalone="no"?>
<!-- Created with Inkscape (http://www.inkscape.org/) -->
<svg xmlns:inkscape="http://www.inkscape.org/namespaces/inkscape" xmlns:rdf="http://www.w3.org/1999/02/22-rdf-syntax-ns#" xmlns="http://www.w3.org/2000/svg" xmlns:cc="http://web.resource.org/cc/" xmlns:dc="http://purl.org/dc/elements/1.1/" xmlns:sodipodi="http://sodipodi.sourceforge.net/DTD/sodipodi-0.dtd" xmlns:svg="http://www.w3.org/2000/svg" xmlns:ns1="http://sozi.baierouge.fr" xmlns:xlink="http://www.w3.org/1999/xlink" id="svg2" sodipodi:docname="laptop-lineart.svg" inkscape:export-filename="C:\Documents and Settings\Mete  İslam\Desktop\MyLaptop.png" viewBox="0 0 400 400" sodipodi:version="0.32" inkscape:export-xdpi="98" version="1.0" inkscape:output_extension="org.inkscape.output.svg.inkscape" inkscape:export-ydpi="98" inkscape:version="0.45+devel" sodipodi:docbase="C:\Documents and Settings\Mete  İslam\Desktop">
  <sodipodi:namedview id="base" inkscape:zoom="1.1575" height="400px" borderopacity="1.0" inkscape:current-layer="layer1" inkscape:cx="200" inkscape:cy="200" width="400px" inkscape:guide-bbox="true" showguides="true" bordercolor="#666666" inkscape:window-x="0" guidetolerance="10" objecttolerance="10" inkscape:window-y="0" inkscape:window-width="829" inkscape:pageopacity="0.0" inkscape:pageshadow="2" pagecolor="#ffffff" gridtolerance="10000" inkscape:document-units="px" inkscape:window-height="690"/>
  <g id="layer1" inkscape:label="Layer 1" inkscape:groupmode="layer">
    <path id="path2172" sodipodi:nodetypes="cccccc" style="stroke-linejoin:round;stroke:#000000;stroke-linecap:round;fill:none" d="m95.759 261.61l-27.451 16.99 165.04 96.41 159.75-155.46-143-53.43-16.74 10.36"/>
    <path id="path16273" sodipodi:nodetypes="cccccc" style="stroke-linejoin:round;stroke:#000000;stroke-linecap:round;fill:none" d="m277.7 176.51c-100.4 58.92-38.1 45.44-175.99 121.07l87.77 51.81c84.23-22.48 172.04-70.85 165.6-144.16l-59.51-22.11-17.87-6.61z"/>
    <path id="path2174" sodipodi:nodetypes="ccccc" style="stroke-linejoin:round;stroke:#000000;stroke-linecap:round;fill:none" d="m68.172 278.57l0.131 13.22 164.28 99.39c3.25-1.75 4.65-12.08 1.05-16.18l-165.46-96.43z"/>
    <path id="path2176" sodipodi:nodetypes="ccccc" style="stroke-linejoin:round;stroke:#000000;stroke-linecap:round;fill:none" d="m393.08 219.63c0.98 3.03 2.03 9.63-0.84 12.35l-159.4 158.94c4.22-4.83 2.92-10.44 0.79-16.18l159.45-155.11z"/>
    <path id="path2178" sodipodi:nodetypes="ccccss" style="stroke-linejoin:round;stroke:#000000;stroke-linecap:round;fill:none" d="m232.03 175.26c10.77-6.57 17.41-10.63 17.41-10.63l0.53-155.84-215 68.309c0.004 0 28.459 202.73 30.567 200.57 0.513-0.53 11.687-7.5 28.297-17.75"/>
    <path id="path2182" style="stroke-linejoin:round;stroke:#000000;stroke-linecap:round;fill:none" d="m34.858 76.922c-1.933-1.607-3.325-1.836-6.96-1.237l215.73-68.324c3.37-1.1456 5.31-0.0916 6.31 1.4342" inkscape:export-ydpi="98" sodipodi:nodetypes="cccc" inkscape:export-xdpi="98"/>
    <path id="path3155" sodipodi:nodetypes="ccccc" style="stroke-linejoin:round;stroke:#000000;stroke-linecap:round;fill:none" d="m41.128 89.516l205.92-67.659-1.48 133.18-178.68 107.9-25.762-173.42z"/>
    <path id="path4130" sodipodi:nodetypes="ccccc" style="stroke-linejoin:round;stroke:#000000;stroke-linecap:round;fill:none" d="m270.3 173.9l-178.24 117.98-8.996-5.03 179.48-116.03 7.76 3.08z"/>
    <path id="path5126" sodipodi:nodetypes="ccc" style="stroke-linejoin:round;stroke:#000000;stroke-linecap:round;fill:none" d="m113.88 277.35l19.54-12.78-19.54 12.78z"/>
    <path id="rect2179" sodipodi:nodetypes="cccccccccc" style="stroke-linejoin:round;stroke:#000000;stroke-linecap:round;fill:none" d="m260.56 282.16l38.78-32.43c2.23-1.86 6.91-2.09 10.55-0.52 0 0 19.96 9.14 19.96 9.14 3.87 1.67 5.35 4.65 3.27 6.69l-37.64 33.79c-2.48 2.44-7.84 2.79-11.97 0.79l-20.8-10.1c-3.85-1.87-4.79-5.15-2.15-7.36"/>
    <path id="path5322" sodipodi:nodetypes="ccc" style="stroke-linejoin:round;stroke:#000000;stroke-linecap:round;fill:none" d="m156.31 239.62c2.54-1.95 8.94 1.78 8.57 4.12l-8.57-4.12z"/>
    <path id="path6299" sodipodi:nodetypes="ccccc" style="stroke-linejoin:round;stroke:#000000;stroke-linecap:round;fill:none" d="m112.55 278.27l17.52-11.66c-1.47-3-4.21-5.16-8.6-4.76l-17.42 11.44c3.03-2.08 8.94 2.52 8.5 4.98z"/>
    <path id="path4349" sodipodi:nodetypes="cc" style="stroke-linejoin:round;stroke:#000000;stroke-linecap:round;fill:none" d="m112.52 278.36l-8.49-5.06"/>
    <path id="path8239" sodipodi:nodetypes="cccc" style="stroke-linejoin:round;stroke:#000000;stroke-linecap:round;fill:none" d="m171.42 229.79l-15.15 9.84c2.68-2.12 9.3 2.13 8.57 4.12l14.8-9.78"/>
    <path id="path8241" sodipodi:nodetypes="ccccc" style="stroke-linejoin:round;stroke:#000000;stroke-linecap:round;fill:none" d="m179.54 233.99l14.96-9.75c-1.03-2.91-3.53-4.8-8.53-3.95l-15.12 9.82c3.03-1.33 8.2 0.34 8.69 3.88z"/>
    <path id="path8243" sodipodi:nodetypes="ccccc" style="stroke-linejoin:round;stroke:#000000;stroke-linecap:round;fill:none" d="m194.44 224.23l13.26-8.83c-1.73-2.69-3.9-3.81-8.24-3.67l-13.56 8.58c3.2-0.75 7.73 0.35 8.54 3.92z"/>
    <path id="path8245" sodipodi:nodetypes="ccccc" style="stroke-linejoin:round;stroke:#000000;stroke-linecap:round;fill:none" d="m207.75 215.39l11.59-7.72c-2-2.5-4.29-3.56-8.06-3.55l-11.87 7.62c3.33-0.3 6.4 0.66 8.34 3.65z"/>
    <path id="path8247" sodipodi:nodetypes="ccccc" style="stroke-linejoin:round;stroke:#000000;stroke-linecap:round;fill:none" d="m219.3 207.7l11.73-7.73c-1.48-3.46-4.4-4.07-7.73-3.78l-12.26 8.07c2.97-0.33 5.63 0.16 8.26 3.44z"/>
    <path id="rect2202" sodipodi:nodetypes="cccccccccc" style="stroke-linejoin:round;stroke:#000000;stroke-linecap:round;fill:none" d="m221.69 286.68l50.09-40.3c0.61-0.48 1.85-0.49 2.79-0.02l7.66 3.76c0.95 0.48 1.25 1.25 0.66 1.74l-49.34 41.46c-0.74 0.61-2.16 0.64-3.18 0.07l-8.22-4.62c-1.01-0.56-1.21-1.49-0.46-2.09"/>
    <path id="rect3291" style="stroke-linejoin:round;stroke:#000000;stroke-linecap:round;fill:none" d="m302.88 234.28l5.5-4.58c0.55-0.46 0.39-1.1-0.35-1.44l-7.59-3.52c-0.78-0.36-1.88-0.28-2.45 0.19l-5.77 4.7c-0.59 0.48-0.4 1.14 0.41 1.49l7.86 3.4c0.77 0.33 1.83 0.22 2.39-0.24"/>
    <path id="rect3293" style="stroke-linejoin:round;stroke:#000000;stroke-linecap:round;fill:none" d="m235.37 272.48l-7.95-3.86c-0.68-0.33-1.63-0.29-2.13 0.1l-5.79 4.45c-0.5 0.39-0.36 0.98 0.32 1.32l7.93 3.95c0.7 0.34 1.67 0.3 2.18-0.1l5.8-4.54c0.5-0.39 0.34-0.98-0.36-1.32"/>
    <path id="rect3299" style="stroke-linejoin:round;stroke:#000000;stroke-linecap:round;fill:none" d="m247.44 211.44l7.6 3.29c0.55 0.23 0.65 0.68 0.21 0.99l-6.16 4.45c-0.44 0.32-1.24 0.38-1.79 0.14l-7.58-3.37c-0.53-0.24-0.61-0.68-0.17-0.99l6.13-4.36c0.44-0.31 1.22-0.38 1.76-0.15"/>
    <path id="rect3301" style="stroke-linejoin:round;stroke:#000000;stroke-linecap:round;fill:none" d="m211.39 264.69l9.31 4.63c0.67 0.34 0.85 0.89 0.4 1.24l-6.5 4.99c-0.47 0.37-1.4 0.37-2.08 0.02l-9.33-4.83c-0.65-0.34-0.79-0.89-0.32-1.24l6.52-4.79c0.46-0.34 1.35-0.35 2-0.02"/>
    <path id="rect3305" style="stroke-linejoin:round;stroke:#000000;stroke-linecap:round;fill:none" d="m190.8 251.04l8.2 4.46c0.34 0.19 0.36 0.51 0.05 0.73l-7.26 5.11c-0.31 0.22-0.83 0.25-1.18 0.07l-8.39-4.32c-0.36-0.19-0.4-0.52-0.09-0.74l7.46-5.26c0.31-0.23 0.85-0.25 1.21-0.05"/>
    <path id="rect3309" style="stroke-linejoin:round;stroke:#000000;stroke-linecap:round;fill:none" d="m200.87 319.48l-9.31 7.85c-0.47 0.4-1.26 0.48-1.78 0.18l-10.32-5.9c-0.51-0.29-0.54-0.85-0.06-1.24l9.47-7.73c0.47-0.38 1.25-0.45 1.75-0.16l10.16 5.78c0.5 0.29 0.55 0.83 0.09 1.22"/>
    <path id="rect3311" style="stroke-linejoin:round;stroke:#000000;stroke-linecap:round;fill:none" d="m227.03 279.38l-8.56-4.27c-0.49-0.24-1.24-0.18-1.67 0.15l-7.45 5.74c-0.45 0.34-0.4 0.83 0.1 1.08l8.65 4.44c0.52 0.27 1.29 0.19 1.73-0.16l7.36-5.91c0.42-0.34 0.35-0.82-0.16-1.07"/>
    <path id="rect3313" style="stroke-linejoin:round;stroke:#000000;stroke-linecap:round;fill:none" d="m200.88 244.07l7.94 4.29c0.42 0.22 0.44 0.63 0.05 0.91l-7.57 5.35c-0.4 0.28-1.06 0.32-1.48 0.1l-7.93-4.34c-0.42-0.23-0.43-0.63-0.03-0.91l7.56-5.3c0.39-0.28 1.04-0.32 1.46-0.1"/>
    <path id="rect3317" style="stroke-linejoin:round;stroke:#000000;stroke-linecap:round;fill:none" d="m168.98 312.35l17.54-13.42c1.23-0.94 2.69-1.43 3.29-1.1l8.13 4.48c0.61 0.33 0.14 1.37-1.05 2.33l-17.04 13.82c-1.34 1.08-2.94 1.67-3.58 1.31l-8.63-4.86c-0.64-0.36-0.04-1.5 1.34-2.56"/>
    <path id="rect3319" style="stroke-linejoin:round;stroke:#000000;stroke-linecap:round;fill:none" d="m192.51 290.87l-9.24-4.92c-0.72-0.39-1.73-0.39-2.24 0l-6.59 4.95c-0.54 0.4-0.38 1.05 0.35 1.45l9.29 5.1c0.76 0.41 1.79 0.41 2.32-0.01l6.54-5.12c0.51-0.4 0.32-1.05-0.43-1.45"/>
    <path id="rect3321" style="stroke-linejoin:round;stroke:#000000;stroke-linecap:round;fill:none" d="m185.14 279.9l-8.51-4.4c-0.6-0.31-1.48-0.29-1.97 0.06l-7.07 4.99c-0.53 0.37-0.44 0.94 0.18 1.26l8.84 4.6c0.63 0.33 1.55 0.28 2.05-0.1l6.74-5.2c0.46-0.36 0.35-0.9-0.26-1.21"/>
    <path id="rect3323" style="stroke-linejoin:round;stroke:#000000;stroke-linecap:round;fill:none" d="m161.12 272.03l8.68 4.58c0.42 0.22 0.47 0.6 0.12 0.86l-7.32 5.25c-0.36 0.26-1 0.29-1.43 0.06l-8.84-4.65c-0.43-0.23-0.48-0.62-0.11-0.87l7.49-5.19c0.36-0.24 0.99-0.26 1.41-0.04"/>
    <path id="rect3325" style="stroke-linejoin:round;stroke:#000000;stroke-linecap:round;fill:none" d="m220.29 303.22l-7.1 5.96c-0.45 0.38-1.3 0.38-1.91 0.01l-9.27-5.73c-0.55-0.34-0.64-0.89-0.21-1.24l6.86-5.53c0.42-0.34 1.21-0.36 1.77-0.05l9.52 5.29c0.62 0.34 0.78 0.92 0.34 1.29"/>
    <path id="rect3327" style="stroke-linejoin:round;stroke:#000000;stroke-linecap:round;fill:none" d="m250.18 231.05l-7.15-3.62c-0.72-0.37-1.74-0.34-2.3 0.06l-5.67 4.1c-0.58 0.42-0.45 1.06 0.29 1.43l7.36 3.72c0.74 0.37 1.78 0.32 2.34-0.11l5.46-4.19c0.53-0.41 0.39-1.03-0.33-1.39"/>
    <path id="rect3329" style="stroke-linejoin:round;stroke:#000000;stroke-linecap:round;fill:none" d="m241.74 237.62l-7.64-3.79c-0.67-0.34-1.63-0.31-2.14 0.06l-5.84 4.23c-0.51 0.37-0.37 0.93 0.31 1.25l7.7 3.72c0.66 0.31 1.59 0.28 2.1-0.08l5.78-4.15c0.51-0.36 0.38-0.92-0.27-1.24"/>
    <path id="rect3331" style="stroke-linejoin:round;stroke:#000000;stroke-linecap:round;fill:none" d="m291.07 231.67l8.87 3.79c0.55 0.24 0.69 0.68 0.3 1l-6.45 5.23c-0.39 0.32-1.14 0.37-1.68 0.11l-8.62-4.02c-0.5-0.23-0.6-0.67-0.23-0.97l6.2-5c0.38-0.3 1.09-0.37 1.61-0.14"/>
    <path id="rect3333" style="stroke-linejoin:round;stroke:#000000;stroke-linecap:round;fill:none" d="m214.66 258.18l-8.87-4.32c-0.49-0.24-1.21-0.2-1.61 0.08l-7.2 5.06c-0.41 0.29-0.36 0.73 0.12 0.98l8.73 4.57c0.52 0.27 1.27 0.24 1.69-0.06l7.34-5.31c0.41-0.3 0.32-0.75-0.2-1"/>
    <path id="rect3335" style="stroke-linejoin:round;stroke:#000000;stroke-linecap:round;fill:none" d="m238.62 217.71l7.58 3.36c0.55 0.24 0.61 0.71 0.13 1.06l-6.77 4.91c-0.49 0.35-1.33 0.44-1.88 0.19l-7.65-3.44c-0.54-0.24-0.58-0.72-0.09-1.07l6.84-4.83c0.48-0.34 1.3-0.42 1.84-0.18"/>
    <path id="rect3337" style="stroke-linejoin:round;stroke:#000000;stroke-linecap:round;fill:none" d="m228.92 224.61l7.7 3.34c0.56 0.24 0.63 0.71 0.16 1.05l-6.71 4.83c-0.49 0.35-1.33 0.43-1.89 0.18l-7.71-3.48c-0.55-0.25-0.59-0.72-0.1-1.06l6.72-4.69c0.47-0.33 1.29-0.4 1.83-0.17"/>
    <path id="rect3339" style="stroke-linejoin:round;stroke:#000000;stroke-linecap:round;fill:none" d="m257.15 204.4l8.18 3.48c0.34 0.15 0.38 0.45 0.07 0.68l-7.56 5.49c-0.33 0.25-0.89 0.31-1.25 0.16l-8.42-3.63c-0.36-0.16-0.37-0.47-0.03-0.7l7.81-5.35c0.32-0.22 0.85-0.27 1.2-0.13"/>
    <path id="rect3341" style="stroke-linejoin:round;stroke:#000000;stroke-linecap:round;fill:none" d="m201.85 271.35l10.15 5.18c0.45 0.23 0.56 0.61 0.23 0.86l-7.38 5.62c-0.33 0.25-0.96 0.27-1.41 0.03l-10.2-5.24c-0.45-0.23-0.55-0.62-0.21-0.86l7.42-5.56c0.33-0.25 0.95-0.26 1.4-0.03"/>
    <path id="rect3343" style="stroke-linejoin:round;stroke:#000000;stroke-linecap:round;fill:none" d="m219.22 231.11l8.2 3.74c0.42 0.18 0.47 0.54 0.13 0.79l-7.1 5.2c-0.36 0.26-0.99 0.32-1.41 0.12l-8.36-3.9c-0.41-0.2-0.44-0.56-0.07-0.82l7.24-5.02c0.35-0.24 0.96-0.29 1.37-0.11"/>
    <path id="rect3345" style="stroke-linejoin:round;stroke:#000000;stroke-linecap:round;fill:none" d="m166.11 294.41l-9.07-4.89c-0.52-0.28-1.52-0.09-2.23 0.42 0 0-12.55 8.99-12.55 8.99-0.76 0.55-0.95 1.23-0.42 1.53l9.13 5.21c0.55 0.32 1.59 0.11 2.35-0.45l12.48-9.33c0.72-0.53 0.85-1.19 0.31-1.48"/>
    <path id="rect3349" style="stroke-linejoin:round;stroke:#000000;stroke-linecap:round;fill:none" d="m151.01 278.7l9.36 4.92c0.31 0.16 0.35 0.45 0.09 0.63l-8.18 5.99c-0.27 0.2-0.73 0.22-1.04 0.05l-9.27-5.15c-0.29-0.17-0.31-0.45-0.04-0.63l8.09-5.75c0.26-0.19 0.7-0.21 0.99-0.06"/>
    <path id="rect3351" style="stroke-linejoin:round;stroke:#000000;stroke-linecap:round;fill:none" d="m175.52 287.15l-8.72-4.62c-0.64-0.34-1.55-0.32-2.04 0.05l-6.66 4.96c-0.5 0.37-0.38 0.94 0.26 1.29l8.71 4.71c0.66 0.35 1.58 0.33 2.08-0.04l6.67-5.06c0.49-0.37 0.36-0.95-0.3-1.29"/>
    <path id="rect3353" style="stroke-linejoin:round;stroke:#000000;stroke-linecap:round;fill:none" d="m201.97 283.46l-9.18-4.72c-0.71-0.36-1.7-0.34-2.22 0.05l-6.59 4.95c-0.53 0.4-0.4 1.03 0.3 1.42l9.09 4.99c0.75 0.41 1.79 0.41 2.34-0.02l6.68-5.22c0.53-0.42 0.34-1.06-0.42-1.45"/>
    <path id="rect3355" style="stroke-linejoin:round;stroke:#000000;stroke-linecap:round;fill:none" d="m183.21 298.32l-9.65-5.08c-0.68-0.36-2.08-0.01-3.14 0.78l-15.22 11.32c-1.11 0.83-1.46 1.8-0.78 2.18l9.68 5.41c0.7 0.39 2.16 0.02 3.27-0.83l15.19-11.65c1.06-0.81 1.35-1.76 0.65-2.13"/>
    <path id="rect3357" style="stroke-linejoin:round;stroke:#000000;stroke-linecap:round;fill:none" d="m181.25 257.89l8.28 4.3c0.4 0.21 0.44 0.6 0.09 0.87l-7.6 5.77c-0.38 0.29-1.03 0.35-1.45 0.13l-8.63-4.52c-0.42-0.22-0.43-0.62-0.03-0.9l7.95-5.56c0.37-0.26 0.99-0.3 1.39-0.09"/>
    <path id="rect3359" style="stroke-linejoin:round;stroke:#000000;stroke-linecap:round;fill:none" d="m207.3 294.98l-8.71-4.44c-0.53-0.27-1.28-0.22-1.68 0.1l-6.5 5.21c-0.41 0.33-0.32 0.81 0.19 1.09l8.48 4.61c0.55 0.29 1.32 0.26 1.74-0.07l6.73-5.38c0.42-0.33 0.31-0.84-0.25-1.12"/>
    <path id="rect3361" style="stroke-linejoin:round;stroke:#000000;stroke-linecap:round;fill:none" d="m210.32 311.53l-6.57 5.47c-0.67 0.55-1.89 0.61-2.74 0.13l-8.77-5.01c-0.9-0.52-1.07-1.4-0.36-1.97l7-5.6c0.69-0.55 1.94-0.57 2.81-0.04l8.34 5.14c0.81 0.5 0.94 1.34 0.29 1.88"/>
    <path id="rect3363" style="stroke-linejoin:round;stroke:#000000;stroke-linecap:round;fill:none" d="m229.41 295.58l-6.37 5.37c-0.56 0.47-1.62 0.5-2.38 0.07l-8.8-4.95c-0.76-0.44-0.92-1.16-0.35-1.63l6.51-5.32c0.56-0.46 1.62-0.48 2.38-0.05l8.64 4.91c0.75 0.43 0.92 1.14 0.37 1.6"/>
    <path id="rect3365" style="stroke-linejoin:round;stroke:#000000;stroke-linecap:round;fill:none" d="m217.05 287.26l-8.62-4.35c-0.51-0.26-1.27-0.21-1.69 0.11l-7.23 5.52c-0.45 0.34-0.39 0.84 0.14 1.11l8.82 4.58c0.54 0.28 1.33 0.22 1.77-0.14l7.02-5.74c0.41-0.34 0.32-0.82-0.21-1.09"/>
    <path id="rect3367" style="stroke-linejoin:round;stroke:#000000;stroke-linecap:round;fill:none" d="m170.91 265.27l8.42 4.35c0.48 0.25 0.55 0.68 0.15 0.97l-7.06 5.13c-0.41 0.29-1.13 0.32-1.61 0.07l-8.49-4.44c-0.48-0.25-0.54-0.69-0.12-0.98l7.12-5.03c0.4-0.29 1.11-0.32 1.59-0.07"/>
    <path id="rect3369" style="stroke-linejoin:round;stroke:#000000;stroke-linecap:round;fill:none" d="m204.55 265.21l-8.72-4.47c-0.61-0.31-1.51-0.29-2.01 0.06l-7.08 5c-0.51 0.36-0.42 0.92 0.21 1.24l8.83 4.6c0.64 0.33 1.56 0.3 2.06-0.07l6.97-5.13c0.48-0.36 0.37-0.91-0.26-1.23"/>
    <path id="rect3371" style="stroke-linejoin:round;stroke:#000000;stroke-linecap:round;fill:none" d="m194.6 272.55l-8.51-4.4c-0.6-0.31-1.48-0.29-1.97 0.06l-7.07 4.99c-0.53 0.37-0.44 0.93 0.18 1.26l8.84 4.6c0.64 0.33 1.55 0.28 2.05-0.1l6.74-5.2c0.47-0.36 0.35-0.9-0.26-1.21"/>
    <path id="rect3373" style="stroke-linejoin:round;stroke:#000000;stroke-linecap:round;fill:none" d="m284.73 249.18l6.91-5.72c0.29-0.24 0.2-0.58-0.2-0.77l-9.16-4.26c-0.37-0.18-0.91-0.14-1.2 0.09l-6.86 5.48c-0.3 0.24-0.23 0.58 0.14 0.76l9.12 4.52c0.39 0.19 0.95 0.15 1.25-0.1"/>
    <path id="rect3375" style="stroke-linejoin:round;stroke:#000000;stroke-linecap:round;fill:none" d="m266.26 207.11l-8.04-3.43c-0.35-0.15 0.04-0.74 0.87-1.32l17.37-12.14c0.71-0.49 1.55-0.79 1.88-0.66l7.66 2.95c0.35 0.14 0.07 0.66-0.63 1.18l-16.99 12.61c-0.81 0.6-1.76 0.96-2.12 0.81"/>
    <path id="rect3377" style="stroke-linejoin:round;stroke:#000000;stroke-linecap:round;fill:none" d="m150.05 290.89l-8.91-4.91c-0.44-0.25-1.16-0.17-1.63 0.16l-9.31 6.69c-0.46 0.33-0.49 0.8-0.05 1.05l8.79 5c0.45 0.25 1.18 0.18 1.65-0.16l9.42-6.78c0.47-0.33 0.49-0.8 0.04-1.05"/>
    <path id="rect3379" sodipodi:nodetypes="cccccssssccccc" style="stroke-linejoin:round;stroke:#000000;stroke-linecap:round;fill:none" d="m308.02 201.07l-17.77-6.89c-1.21-0.47-2.76-0.46-3.44 0.05l-11.88 8.78c-0.72 0.52-0.86 0.98 0.52 1.36l6.76 2.76c1.09 0.45 1.09 0.47 2.04-0.22l1.26-0.92c0.28-0.2 1.11-0.28 2 0.1l9.15 3.95c1.01 0.28 1.88 0.36 2.45-0.08l9.53-7.49c0.54-0.43 0.28-1.05-0.62-1.4"/>
    <path id="rect3381" style="stroke-linejoin:round;stroke:#000000;stroke-linecap:round;fill:none" d="m263 250.95l-8.48-3.91c-0.43-0.2-1.05-0.15-1.39 0.11l-6.45 5.02c-0.34 0.27-0.27 0.65 0.16 0.86l8.41 4.06c0.46 0.22 1.1 0.18 1.44-0.1l6.52-5.18c0.34-0.27 0.24-0.65-0.21-0.86"/>
    <path id="rect3385" style="stroke-linejoin:round;stroke:#000000;stroke-linecap:round;fill:none" d="m224.64 250.58l-8.23-4.05c-0.61-0.31-1.54-0.24-2.08 0.15l-7.38 5.26c-0.55 0.39-0.49 0.95 0.13 1.25l8.37 4.06c0.61 0.3 1.54 0.22 2.08-0.17l7.24-5.26c0.53-0.39 0.47-0.94-0.13-1.24"/>
    <path id="rect3387" style="stroke-linejoin:round;stroke:#000000;stroke-linecap:round;fill:none" d="m220.8 257.76l8.95 4.4c0.73 0.36 0.91 0.96 0.41 1.35l-6.37 4.97c-0.52 0.4-1.52 0.43-2.25 0.06l-9.03-4.54c-0.72-0.36-0.87-0.96-0.34-1.36l6.44-4.82c0.5-0.38 1.48-0.4 2.19-0.06"/>
    <path id="rect3389" style="stroke-linejoin:round;stroke:#000000;stroke-linecap:round;fill:none" d="m209.9 237.94l7.79 3.58c0.6 0.27 0.72 0.76 0.27 1.1l-6.48 4.81c-0.47 0.35-1.33 0.39-1.9 0.08l-7.54-4.07c-0.5-0.27-0.53-0.75-0.07-1.06l6.22-4.33c0.43-0.3 1.19-0.35 1.71-0.11"/>
    <path id="rect3391" style="stroke-linejoin:round;stroke:#000000;stroke-linecap:round;fill:none" d="m300.49 221.42l17.88-14.45c0.84-0.67 1.19-1.33 0.81-1.49l-7.74-3.03c-0.36-0.14-1.32 0.26-2.14 0.91l-17.61 13.81c-0.89 0.7-1.33 1.4-0.97 1.58l7.46 3.66c0.37 0.18 1.41-0.26 2.31-0.99"/>
    <path id="path13125" style="stroke-linejoin:round;stroke:#000000;stroke-linecap:round;fill:none" d="m258.97 224.64l-7.14-3.4c-0.69-0.33-1.68-0.29-2.23 0.1l-5.65 4.01c-0.58 0.41-0.5 1.03 0.2 1.39l7.16 3.68c0.74 0.38 1.81 0.34 2.39-0.11l5.62-4.28c0.55-0.42 0.39-1.04-0.35-1.39"/>
    <path id="path13127" style="stroke-linejoin:round;stroke:#000000;stroke-linecap:round;fill:none" d="m245.03 264.96l-8.13-3.93c-0.6-0.29-1.48-0.21-1.98 0.17l-6.76 5.28c-0.51 0.39-0.43 0.94 0.17 1.24l8.18 4c0.61 0.29 1.51 0.21 2.01-0.19l6.71-5.34c0.5-0.39 0.41-0.94-0.2-1.23"/>
    <path id="path13129" style="stroke-linejoin:round;stroke:#000000;stroke-linecap:round;fill:none" d="m241.34 254.89l5.84-4.5c0.46-0.36 0.26-0.92-0.46-1.27l-8.87-4.29c-0.71-0.34-1.65-0.34-2.12 0.01l-5.89 4.42c-0.47 0.36-0.28 0.92 0.42 1.27l8.93 4.38c0.72 0.35 1.68 0.34 2.15-0.02"/>
    <path id="path13131" style="stroke-linejoin:round;stroke:#000000;stroke-linecap:round;fill:none" d="m250.1 248.11l5.94-4.71c0.57-0.46 0.37-1.13-0.45-1.52l-8.12-3.82c-0.8-0.38-1.93-0.34-2.53 0.09l-6.21 4.46c-0.64 0.46-0.5 1.16 0.33 1.56l8.38 4.08c0.85 0.41 2.04 0.35 2.66-0.14"/>
    <path id="path13133" style="stroke-linejoin:round;stroke:#000000;stroke-linecap:round;fill:none" d="m270.78 244.1l-7.61-3.55c-0.57-0.26-1.36-0.22-1.77 0.1l-5.73 4.48c-0.44 0.35-0.31 0.84 0.28 1.11l7.94 3.66c0.58 0.27 1.39 0.2 1.8-0.15l5.4-4.59c0.39-0.32 0.25-0.8-0.31-1.06"/>
    <path id="path13135" style="stroke-linejoin:round;stroke:#000000;stroke-linecap:round;fill:none" d="m279.36 237.13l-7.41-3.34c-0.58-0.26-1.43-0.17-1.9 0.19l-5.99 4.64c-0.49 0.38-0.42 0.9 0.16 1.17l7.38 3.49c0.6 0.29 1.48 0.2 1.96-0.18l6.03-4.79c0.48-0.38 0.38-0.91-0.23-1.18"/>
    <path id="path14377" style="stroke-linejoin:round;stroke:#000000;stroke-linecap:round;fill:none" d="m259.14 241.02l5.8-4.52c0.58-0.44 0.34-1.11-0.53-1.48l-8.27-3.58c-0.79-0.34-1.87-0.28-2.43 0.14l-5.62 4.22c-0.57 0.42-0.41 1.06 0.37 1.44l8.08 3.87c0.85 0.41 2.01 0.37 2.6-0.09"/>
    <path id="path14379" style="stroke-linejoin:round;stroke:#000000;stroke-linecap:round;fill:none" d="m232.79 261.44l5.94-4.58c0.43-0.34 0.24-0.87-0.43-1.19l-9.02-4.37c-0.67-0.32-1.56-0.31-1.99 0.02l-5.99 4.49c-0.45 0.33-0.28 0.86 0.39 1.19l9.08 4.45c0.68 0.34 1.58 0.33 2.02-0.01"/>
    <path id="path14381" style="stroke-linejoin:round;stroke:#000000;stroke-linecap:round;fill:none" d="m254.17 257.49l-7.84-3.76c-0.62-0.3-1.54-0.21-2.05 0.19l-6.53 5.06c-0.52 0.41-0.45 0.98 0.17 1.29l7.86 3.87c0.63 0.31 1.57 0.23 2.1-0.19l6.51-5.18c0.51-0.41 0.42-0.98-0.22-1.28"/>
    <path id="path14383" style="stroke-linejoin:round;stroke:#000000;stroke-linecap:round;fill:none" d="m233.04 243.79l-7.55-3.65c-0.75-0.36-1.8-0.32-2.36 0.09l-5.68 4.15c-0.58 0.42-0.45 1.05 0.29 1.43l7.5 3.78c0.77 0.38 1.85 0.35 2.43-0.08l5.73-4.28c0.57-0.42 0.41-1.06-0.36-1.44"/>
    <path id="path14385" style="stroke-linejoin:round;stroke:#000000;stroke-linecap:round;fill:none" d="m282.03 224.71l5.95-4.63c0.59-0.45 1.58-0.57 2.23-0.25l6.56 3.18c0.66 0.32 0.72 0.95 0.14 1.42l-5.89 4.72c-0.6 0.48-1.62 0.6-2.29 0.27l-6.61-3.28c-0.65-0.32-0.69-0.96-0.09-1.43"/>
    <path id="path20314" style="stroke-linejoin:round;stroke:#000000;stroke-linecap:round;fill:none" d="m274.59 213.05l-6.96-3.17c-0.7-0.32-1.65-0.29-2.12 0.05l-4.81 3.52c-0.49 0.36-0.31 0.91 0.41 1.23l7.14 3.19c0.71 0.31 1.66 0.28 2.13-0.08l4.63-3.55c0.46-0.35 0.27-0.88-0.42-1.19"/>
    <path id="path20316" style="stroke-linejoin:round;stroke:#000000;stroke-linecap:round;fill:none" d="m292 215.55l4.37-3.39c0.43-0.34 0.12-0.88-0.69-1.22l-7.9-3.3c-0.77-0.32-1.74-0.32-2.16 0l-4.32 3.25c-0.43 0.33-0.17 0.86 0.6 1.2l7.85 3.44c0.8 0.36 1.81 0.37 2.25 0.02"/>
    <path id="path20318" style="stroke-linejoin:round;stroke:#000000;stroke-linecap:round;fill:none" d="m284.73 221.17l4.72-3.63c0.48-0.36 0.22-0.92-0.58-1.26l-7.97-3.38c-0.8-0.34-1.83-0.32-2.31 0.04l-4.79 3.63c-0.48 0.36-0.22 0.93 0.59 1.27l8.03 3.38c0.8 0.34 1.83 0.32 2.31-0.05"/>
    <path id="path20320" style="stroke-linejoin:round;stroke:#000000;stroke-linecap:round;fill:none" d="m280.71 208.19l-7.06-2.8c-0.66-0.26-1.49-0.25-1.87 0.03l-3.84 2.79c-0.4 0.28-0.2 0.74 0.44 1.03l6.9 3.12c0.74 0.33 1.67 0.35 2.08 0.03l4.01-3.11c0.39-0.3 0.09-0.79-0.66-1.09"/>
    <path id="path20322" style="stroke-linejoin:round;stroke:#000000;stroke-linecap:round;fill:none" d="m267.13 218.61l-7.08-3.21c-0.69-0.32-1.66-0.28-2.17 0.08l-5.21 3.64c-0.52 0.37-0.4 0.93 0.28 1.27l6.98 3.4c0.73 0.35 1.74 0.32 2.28-0.07l5.3-3.83c0.53-0.38 0.36-0.95-0.38-1.28"/>
    <path id="path20324" style="stroke-linejoin:round;stroke:#000000;stroke-linecap:round;fill:none" d="m287.74 230.26l-6.66-3.26c-0.67-0.33-1.67-0.24-2.24 0.19l-5.75 4.44c-0.58 0.45-0.49 1.08 0.21 1.41l6.89 3.23c0.68 0.32 1.67 0.22 2.23-0.23l5.52-4.42c0.54-0.43 0.45-1.04-0.2-1.36"/>
    <path id="path20326" style="stroke-linejoin:round;stroke:#000000;stroke-linecap:round;fill:none" d="m267.95 234.14l5.45-4.19c0.55-0.42 0.32-1.04-0.51-1.4l-8.14-3.49c-0.8-0.35-1.88-0.3-2.42 0.1l-5.44 4.08c-0.55 0.41-0.35 1.03 0.45 1.39l8.12 3.61c0.83 0.37 1.94 0.32 2.49-0.1"/>
    <path id="path21282" style="stroke-linejoin:round;stroke:#000000;stroke-linecap:round;fill:none" d="m276.33 227.66l5.57-4.3c0.55-0.43 0.33-1.05-0.49-1.39l-8.06-3.38c-0.8-0.33-1.88-0.27-2.43 0.15l-5.58 4.18c-0.56 0.42-0.38 1.04 0.42 1.38l8.07 3.51c0.82 0.35 1.94 0.29 2.5-0.15"/>
    <path id="path2180" style="stroke-linejoin:round;stroke:#000000;stroke-linecap:round;fill:none" d="m65.088 277.79l-8.447-4.25-28.759-197.79" inkscape:transform-center-x="21.926591" inkscape:transform-center-y="-98.60823" sodipodi:nodetypes="ccc"/>
    <path id="path13298" sodipodi:nodetypes="ccccc" style="stroke-linejoin:round;stroke:#000000;stroke-linecap:round;fill:none" d="m92.829 259.35l138.08-84.63c1.74 1.06 3.26 2.26 3.32 4.34l-137.57 84.77c-0.239-1.97-1.543-3.45-3.831-4.48z"/>
  </g>
  <metadata>
    <rdf:RDF>
      <cc:Work>
        <dc:format>image/svg+xml</dc:format>
        <dc:type rdf:resource="http://purl.org/dc/dcmitype/StillImage"/>
        <cc:license rdf:resource="http://creativecommons.org/licenses/publicdomain/"/>
        <dc:publisher>
          <cc:Agent rdf:about="http://openclipart.org/">
            <dc:title>Openclipart</dc:title>
          </cc:Agent>
        </dc:publisher>
        <dc:title>Laptop in Line Art</dc:title>
        <dc:date>2007-09-02T02:09:58</dc:date>
        <dc:description>only the lines of a laptop for line art compositions or a base for new drawing.</dc:description>
        <dc:source>https://openclipart.org/detail/5136/laptop-in-line-art-by-aurium</dc:source>
        <dc:creator>
          <cc:Agent>
            <dc:title>aurium</dc:title>
          </cc:Agent>
        </dc:creator>
        <dc:subject>
          <rdf:Bag>
            <rdf:li>computer</rdf:li>
            <rdf:li>laptop</rdf:li>
            <rdf:li>line art</rdf:li>
            <rdf:li>remix</rdf:li>
          </rdf:Bag>
        </dc:subject>
      </cc:Work>
      <cc:License rdf:about="http://creativecommons.org/licenses/publicdomain/">
        <cc:permits rdf:resource="http://creativecommons.org/ns#Reproduction"/>
        <cc:permits rdf:resource="http://creativecommons.org/ns#Distribution"/>
        <cc:permits rdf:resource="http://creativecommons.org/ns#DerivativeWorks"/>
      </cc:License>
    </rdf:RDF>
  </metadata>
</svg>